<svg width="233" height="48" viewBox="0 0 233 48" fill="none" xmlns="http://www.w3.org/2000/svg">
<path d="M99.6515 14.0338L99.3382 37.6481L94.6018 37.5852L94.8056 22.2258L88.2753 37.5013L84.6892 37.4537L78.5327 22.0099L78.3289 37.3694L73.5926 37.3065L73.9058 13.6923L79.285 13.7636L86.5626 31.4217L94.3061 13.9629L99.6515 14.0338ZM105.686 16.7532C104.852 16.7421 104.156 16.4735 103.599 15.9472C103.065 15.3988 102.803 14.7298 102.814 13.9404C102.824 13.151 103.103 12.5005 103.652 11.989C104.223 11.4552 104.925 11.1938 105.76 11.2049C106.594 11.2159 107.279 11.4957 107.813 12.0442C108.37 12.5704 108.643 13.2282 108.633 14.0176C108.622 14.807 108.331 15.4686 107.76 16.0025C107.212 16.514 106.521 16.7643 105.686 16.7532ZM107.991 19.017L107.742 37.7596L103.006 37.6967L103.255 18.9542L107.991 19.017ZM115.789 33.9751L124.145 34.0859L124.094 37.9765L110.358 37.7943L110.409 33.9713L118.742 23.051L110.589 22.9428L110.641 19.0522L124.241 19.2326L124.19 23.0556L115.789 33.9751ZM131.692 22.2415C132.315 21.2572 133.114 20.4895 134.092 19.9385C135.092 19.3878 136.223 19.1209 137.486 19.1376L137.42 24.1108L136.168 24.0942C134.68 24.0745 133.547 24.4091 132.771 25.0981C132.018 25.7874 131.629 27.0004 131.606 28.7371L131.482 38.0745L126.746 38.0117L126.995 19.2692L131.731 19.332L131.692 22.2415ZM138.316 28.7246C138.341 26.8301 138.736 25.1547 139.5 23.6985C140.286 22.2427 141.327 21.1286 142.623 20.3563C143.942 19.5842 145.402 19.2088 147.003 19.2301C148.401 19.2486 149.616 19.5467 150.646 20.1243C151.698 20.7022 152.535 21.4239 153.155 22.2894L153.19 19.6167L157.96 19.68L157.712 38.4225L152.942 38.3592L152.978 35.6189C152.357 36.4904 151.502 37.2122 150.411 37.7843C149.344 38.3341 148.111 38.5997 146.713 38.5811C145.134 38.5602 143.696 38.1351 142.398 37.3058C141.123 36.4767 140.112 35.3241 139.365 33.8479C138.64 32.3495 138.291 30.6417 138.316 28.7246ZM153.066 28.988C153.081 27.8377 152.869 26.8536 152.428 26.0357C151.988 25.1952 151.388 24.5556 150.627 24.1169C149.866 23.6556 149.045 23.4191 148.166 23.4075C147.286 23.3958 146.471 23.5993 145.721 24.018C144.971 24.4366 144.354 25.06 143.869 25.8883C143.408 26.6942 143.169 27.6611 143.154 28.7888C143.139 29.9165 143.352 30.9119 143.791 31.7749C144.254 32.6157 144.854 33.2666 145.593 33.7275C146.353 34.1888 147.162 34.4251 148.02 34.4365C148.899 34.4482 149.725 34.2448 150.498 33.8265C151.271 33.3855 151.888 32.7621 152.35 31.9561C152.812 31.1276 153.051 30.1382 153.066 28.988ZM160.23 29.0153C160.255 27.1208 160.65 25.4454 161.413 23.9893C162.2 22.5334 163.252 21.4195 164.571 20.6474C165.889 19.8754 167.349 19.5 168.951 19.5212C170.169 19.5374 171.327 19.8235 172.424 20.3794C173.523 20.9128 174.393 21.6237 175.036 22.512L175.154 13.6143L179.958 13.6781L179.625 38.7133L174.821 38.6495L174.858 35.8753C174.26 36.7923 173.426 37.5257 172.359 38.0754C171.291 38.6252 170.058 38.8909 168.66 38.8723C167.081 38.8514 165.643 38.4262 164.346 37.5969C163.048 36.7676 162.026 35.6149 161.279 34.1387C160.554 32.6402 160.205 30.9324 160.23 29.0153ZM174.98 29.2787C174.995 28.1284 174.782 27.1443 174.342 26.3264C173.902 25.4859 173.301 24.8463 172.54 24.4076C171.779 23.9463 170.959 23.7099 170.08 23.6982C169.2 23.6865 168.385 23.89 167.635 24.3087C166.885 24.7273 166.268 25.3508 165.783 26.179C165.321 26.985 165.083 27.9518 165.068 29.0795C165.053 30.2072 165.265 31.2026 165.705 32.0656C166.168 32.9064 166.768 33.5573 167.506 34.0183C168.267 34.4795 169.076 34.7158 169.933 34.7272C170.813 34.7389 171.639 34.5355 172.411 34.1172C173.184 33.6763 173.802 33.0528 174.263 32.2469C174.726 31.4183 174.964 30.429 174.98 29.2787ZM200.789 29.2151C200.78 29.8917 200.727 30.5 200.63 31.0402L186.928 30.8584C187.023 32.2131 187.482 33.2795 188.307 34.0574C189.131 34.8353 190.152 35.2323 191.37 35.2485C193.129 35.2718 194.391 34.5329 195.155 33.0316L200.264 33.0994C199.699 34.8965 198.642 36.3713 197.092 37.5238C195.543 38.6537 193.652 39.2039 191.42 39.1743C189.615 39.1503 187.997 38.7341 186.564 37.9255C185.153 37.0947 184.052 35.9409 183.26 34.4641C182.49 32.9876 182.117 31.2908 182.143 29.3737C182.169 27.4341 182.586 25.7365 183.395 24.2809C184.204 22.8254 185.324 21.7123 186.755 20.9418C188.186 20.1712 189.827 19.7982 191.676 19.8227C193.458 19.8464 195.043 20.2509 196.431 21.0363C197.842 21.822 198.921 22.9304 199.669 24.3615C200.44 25.7703 200.814 27.3882 200.789 29.2151ZM195.902 27.7967C195.895 26.5785 195.468 25.6028 194.621 24.8697C193.774 24.1141 192.73 23.728 191.489 23.7115C190.317 23.696 189.319 24.0437 188.498 24.7547C187.699 25.4434 187.201 26.418 187.004 27.6787L195.902 27.7967ZM210.975 34.7641L215.902 20.4487L220.943 20.5156L213.759 39.1661L208.007 39.0898L201.354 20.2557L206.429 20.323L210.975 34.7641Z" fill="#7BEFB2"/>
<ellipse cx="55.3182" cy="31.5807" rx="6.15835" ry="5.85548" transform="rotate(0.760094 55.3182 31.5807)" fill="#7BEFB2"/>
<rect x="23.1016" y="7.97827" width="12.776" height="31.548" rx="6.38802" transform="rotate(45.7601 23.1016 7.97827)" fill="#7BEFB2"/>
<rect x="46.5017" y="8.28857" width="12.776" height="31.548" rx="6.38802" transform="rotate(45.7601 46.5017 8.28857)" fill="#7BEFB2"/>
</svg>

